<?xml version="1.0" encoding="UTF-8"?><svg id="Layer_2" xmlns="http://www.w3.org/2000/svg" viewBox="0 0 96.81 96.81"><g id="Layer_1-2"><path d="M96.09,50.92c-.2-.66-.58-1.89-1.44-3.33-.59-.98-1.29-1.88-2.13-2.71l-1.62-1.62c.72-3.63,1.45-7.27,2.17-10.9,.06-1.59,0-5.87-2.79-10.11-.12-.18-2.47-3.68-6.39-5.78-.6-.32-1.74-.93-3.37-1.34-1.11-.28-2.25-.42-3.42-.42h-2.29c-2.06-3.08-4.12-6.16-6.17-9.24-1.09-1.16-4.15-4.14-9.12-5.17-.21-.04-4.34-.86-8.6,.43-.66,.2-1.89,.58-3.33,1.44-.98,.59-1.88,1.29-2.71,2.13l-1.62,1.62c-3.63-.72-7.27-1.45-10.9-2.17-1.59-.06-5.87,0-10.11,2.79-.18,.12-3.68,2.47-5.78,6.39-.32,.6-.93,1.74-1.34,3.37-.28,1.11-.42,2.25-.42,3.42v2.29c-3.08,2.06-6.16,4.12-9.24,6.17-1.16,1.09-4.14,4.15-5.17,9.12-.04,.21-.86,4.34,.43,8.6,.2,.66,.58,1.89,1.44,3.33,.59,.98,1.29,1.88,2.13,2.71l1.62,1.62c-.72,3.63-1.45,7.27-2.17,10.9-.06,1.59,0,5.87,2.79,10.11,.12,.18,2.47,3.68,6.39,5.78,.6,.32,1.74,.93,3.37,1.34,1.11,.28,2.25,.42,3.42,.42h2.29l6.17,9.24c1.09,1.16,4.15,4.14,9.12,5.17,.21,.04,4.34,.86,8.6-.43,.66-.2,1.89-.58,3.33-1.44,.98-.59,1.88-1.29,2.71-2.13l1.62-1.62c3.63,.72,7.27,1.45,10.9,2.17,1.59,.06,5.87,0,10.11-2.79,.18-.12,3.68-2.47,5.78-6.39,.32-.6,.93-1.74,1.34-3.37,.28-1.11,.42-2.25,.42-3.42v-2.29l9.24-6.17c1.16-1.09,4.14-4.15,5.17-9.12,.04-.21,.86-4.34-.43-8.6Zm-13.84-23.12c1.39,1.57,1.86,3.38,1.42,5.42l-.73,3.74c-1.03-.33-2.11-.5-3.24-.49-2.92,.03-5.51,1.17-7.78,3.45l-3.91,3.91V25.44h3.15l.04,.06,.09-.06h5.71c2.12,0,3.87,.78,5.26,2.36Zm-38.25,31.24l-6.23-6.23v-8.81l6.23-6.23h8.81l6.23,6.23v8.81l-6.23,6.23h-8.81ZM52.39,11.95c1.5-1.5,3.29-2.18,5.38-2.05,2.09,.13,3.7,1.07,4.84,2.83l2.13,3.16c-.96,.49-1.84,1.14-2.64,1.94-2.04,2.08-3.07,4.73-3.07,7.94v5.53l-13-13,2.23-2.23h.07l.02-.09,4.04-4.04Zm-24.59,2.61c1.57-1.39,3.38-1.86,5.42-1.42l3.74,.73c-.33,1.03-.5,2.11-.49,3.24,.03,2.92,1.17,5.51,3.45,7.78l3.91,3.91H25.44v-3.15l.06-.04-.06-.09v-5.71c0-2.12,.78-3.87,2.36-5.26ZM9.9,39.04c.13-2.09,1.07-3.7,2.83-4.84l3.16-2.13c.49,.96,1.14,1.84,1.94,2.64,2.08,2.04,4.73,3.07,7.94,3.07h5.53l-13,13-2.23-2.23v-.07l-.09-.02-4.04-4.04c-1.5-1.5-2.18-3.29-2.05-5.38Zm4.66,29.97c-1.39-1.57-1.86-3.38-1.42-5.42l.73-3.74c1.03,.33,2.11,.5,3.24,.49,2.92-.03,5.51-1.17,7.78-3.45l3.91-3.91v18.39h-3.15l-.04-.06-.09,.06h-5.71c-2.12,0-3.87-.78-5.26-2.36Zm29.87,15.85c-1.5,1.5-3.29,2.18-5.38,2.05-2.09-.13-3.7-1.07-4.84-2.83l-2.13-3.16c.96-.49,1.84-1.14,2.64-1.94,2.04-2.08,3.07-4.73,3.07-7.94v-5.53l13,13-2.23,2.23h-.07l-.02,.09-4.04,4.04Zm24.59-2.61c-1.57,1.39-3.38,1.86-5.42,1.42l-3.74-.73c.33-1.03,.5-2.11,.49-3.24-.03-2.92-1.17-5.51-3.45-7.78l-3.91-3.91h18.39v3.15l-.06,.04,.06,.09v5.71c0,2.12-.78,3.87-2.36,5.26Zm17.9-24.49c-.13,2.09-1.07,3.7-2.83,4.84l-3.16,2.13c-.49-.96-1.14-1.84-1.94-2.64-2.08-2.04-4.73-3.07-7.94-3.07h-5.53l13-13,2.23,2.23v.07l.09,.02,4.04,4.04c1.5,1.5,2.18,3.29,2.05,5.38Z"/></g></svg>